# xmcd CD database file
#
# Track frame offsets:
#	150
#	31920
#	45781
#	72409
#	91371
#	120612
#	146676
#	169027
#	202822
#
# Disc length: 2938 seconds
#
# Revision: 0
# Processed by: cddbd v1.5.2PL0 Copyright (c) Steve Scherf et al.
# Submitted via: CDex 1.82
#
DISCID=700b7809
DTITLE=Shahin Novrasli - From Baku to New York City
DYEAR=2019
DGENRE=Jazz
TTITLE0=Both Sides Now
TTITLE1=52nd Street Theme
TTITLE2=Night Song
TTITLE3=Shahin's Day
TTITLE4=She's Out Of My Life
TTITLE5=Salt Peanuts
TTITLE6=Memories
TTITLE7=Stella By Starlight
TTITLE8=Cry Of Gulchura
EXTD=YEAR: 2019
EXTT0=
EXTT1=
EXTT2=
EXTT3=
EXTT4=
EXTT5=
EXTT6=
EXTT7=
EXTT8=
PLAYORDER=
